<?xml version="1.0" standalone="no"?>
<!DOCTYPE svg PUBLIC "-//W3C//DTD SVG 20010904//EN"
 "http://www.w3.org/TR/2001/REC-SVG-20010904/DTD/svg10.dtd">
<svg version="1.0" xmlns="http://www.w3.org/2000/svg"
 width="1200.000000pt" height="220.000000pt" viewBox="0 0 1200.000000 220.000000"
 preserveAspectRatio="xMidYMid meet">

<g transform="translate(0.000000,220.000000) scale(0.100000,-0.100000)"
fill="#000000" stroke="none">
<path d="M3550 2185 c-232 -33 -404 -111 -605 -276 -145 -118 -365 -370 -365
-416 0 -29 47 -63 88 -63 49 0 65 15 162 144 146 196 301 330 485 421 303 151
607 161 995 33 52 -17 108 -37 123 -45 16 -8 31 -13 33 -10 7 6 -137 85 -215
117 -107 44 -239 77 -374 95 -139 18 -198 18 -327 0z"/>
<path d="M3747 1844 c-65 -15 -155 -58 -223 -104 -77 -54 -290 -238 -490 -426
-104 -98 -232 -217 -282 -263 -71 -65 -92 -90 -92 -110 1 -62 66 -89 132 -55
17 9 155 132 307 273 371 346 404 375 496 443 209 154 397 194 594 125 l74
-26 -33 34 c-39 40 -125 87 -199 109 -67 20 -204 20 -284 0z"/>
<path d="M4465 1289 c-19 -5 -143 -113 -329 -286 -441 -410 -503 -461 -642
-531 -88 -44 -164 -64 -252 -64 -79 0 -183 22 -234 48 -44 23 -44 16 2 -24 99
-86 204 -126 335 -126 228 -1 371 88 820 510 82 77 210 196 283 263 108 100
132 128 132 150 0 49 -55 77 -115 60z"/>
<path d="M4443 755 c-11 -8 -54 -58 -94 -112 -268 -355 -557 -529 -930 -558
-169 -14 -420 29 -629 108 -113 43 -92 21 45 -46 357 -176 802 -189 1119 -32
177 87 357 237 529 441 86 103 102 132 94 167 -11 42 -91 62 -134 32z"/>
</g>
</svg>
